<svg width="20" height="20" viewBox="0 0 20 20" fill="none" xmlns="http://www.w3.org/2000/svg">
<path d="M2.35635 5.53757C2.19318 5.15685 1.75228 4.98048 1.37155 5.14365C0.99083 5.30682 0.814467 5.74772 0.977633 6.12845L2.35635 5.53757ZM12.9896 11.1069L12.715 10.409L12.9896 11.1069ZM7.63964 11.516C7.86555 11.1688 7.76723 10.7042 7.42004 10.4783C7.07285 10.2524 6.60827 10.3507 6.38236 10.6979L7.63964 11.516ZM5.20502 12.5073C4.97911 12.8545 5.07743 13.3191 5.42462 13.545C5.77181 13.7709 6.23639 13.6726 6.4623 13.3254L5.20502 12.5073ZM19.023 6.12845C19.1862 5.74772 19.0098 5.30682 18.6291 5.14365C18.2484 4.98048 17.8075 5.15685 17.6443 5.53757L19.023 6.12845ZM15.8337 9.27371L15.3204 8.72686V8.72686L15.8337 9.27371ZM16.5533 11.054C16.8462 11.3469 17.3211 11.3469 17.614 11.054C17.9069 10.7611 17.9069 10.2863 17.614 9.99338L16.5533 11.054ZM9.25033 13.7497C9.25033 14.1639 9.58611 14.4997 10.0003 14.4997C10.4145 14.4997 10.7503 14.1639 10.7503 13.7497H9.25033ZM13.5384 13.3254C13.7643 13.6726 14.2288 13.7709 14.576 13.545C14.9232 13.3191 15.0215 12.8545 14.7956 12.5073L13.5384 13.3254ZM4.69732 9.80404C4.99022 9.51114 4.99022 9.03627 4.69732 8.74338C4.40443 8.45048 3.92956 8.45048 3.63666 8.74338L4.69732 9.80404ZM2.38666 9.99338C2.09377 10.2863 2.09377 10.7611 2.38666 11.054C2.67956 11.3469 3.15443 11.3469 3.44732 11.054L2.38666 9.99338ZM10.0003 10.9163C7.35977 10.9163 5.46165 9.60261 4.19575 8.23934C3.56303 7.55794 3.09878 6.87418 2.79323 6.36085C2.64088 6.1049 2.52915 5.89329 2.45663 5.74825C2.4204 5.67578 2.39404 5.62011 2.37737 5.58402C2.36904 5.56598 2.36313 5.55285 2.35964 5.54499C2.35789 5.54106 2.35674 5.53845 2.35619 5.53719C2.35592 5.53657 2.3558 5.53628 2.35582 5.53634C2.35584 5.53637 2.35589 5.53649 2.35598 5.53669C2.35602 5.5368 2.35611 5.53701 2.35614 5.53707C2.35624 5.53731 2.35635 5.53757 1.66699 5.83301C0.977633 6.12845 0.977765 6.12875 0.977906 6.12908C0.977966 6.12922 0.978118 6.12958 0.978238 6.12985C0.978478 6.13041 0.978758 6.13106 0.979077 6.1318C0.979714 6.13327 0.980508 6.1351 0.981458 6.13728C0.983359 6.14163 0.985888 6.14739 0.989048 6.15449C0.995368 6.1687 1.00422 6.18833 1.01562 6.21302C1.03842 6.26238 1.07147 6.33203 1.11499 6.41907C1.20197 6.59304 1.33113 6.83716 1.50429 7.12808C1.84978 7.7085 2.37512 8.48308 3.09656 9.26001C4.539 10.8134 6.80755 12.4163 10.0003 12.4163V10.9163ZM12.715 10.409C11.9202 10.7219 11.0187 10.9163 10.0003 10.9163V12.4163C11.2152 12.4163 12.3027 12.1833 13.2643 11.8048L12.715 10.409ZM6.38236 10.6979L5.20502 12.5073L6.4623 13.3254L7.63964 11.516L6.38236 10.6979ZM18.3337 5.83301C17.6443 5.53757 17.6444 5.53742 17.6444 5.53727C17.6444 5.53723 17.6445 5.53709 17.6445 5.53701C17.6446 5.53686 17.6447 5.53673 17.6447 5.53662C17.6448 5.53642 17.6448 5.53632 17.6448 5.53634C17.6448 5.53636 17.6446 5.53682 17.6442 5.53771C17.6435 5.53948 17.6419 5.54295 17.6396 5.54806C17.6351 5.55828 17.6275 5.57506 17.6168 5.59789C17.5955 5.64358 17.5621 5.7134 17.5161 5.80344C17.4242 5.98369 17.283 6.2439 17.0904 6.55291C16.704 7.17308 16.1184 7.97785 15.3204 8.72686L16.3469 9.82056C17.2644 8.95937 17.9288 8.04379 18.3635 7.34617C18.5815 6.99627 18.7436 6.69822 18.8524 6.48493C18.9068 6.3782 18.948 6.29243 18.9764 6.23172C18.9905 6.20136 19.0014 6.17723 19.0092 6.15986C19.0131 6.15117 19.0162 6.14417 19.0185 6.13891C19.0196 6.13628 19.0206 6.13409 19.0213 6.13235C19.0217 6.13147 19.022 6.13071 19.0223 6.13006C19.0225 6.12973 19.0226 6.12944 19.0227 6.12917C19.0228 6.12903 19.0228 6.12885 19.0229 6.12879C19.0229 6.12861 19.023 6.12845 18.3337 5.83301ZM15.3204 8.72686C14.6135 9.39032 13.7484 10.0023 12.715 10.409L13.2643 11.8048C14.51 11.3145 15.5324 10.5851 16.3469 9.82056L15.3204 8.72686ZM15.3033 9.80404L16.5533 11.054L17.614 9.99338L16.364 8.74338L15.3033 9.80404ZM9.25033 11.6663V13.7497H10.7503V11.6663H9.25033ZM12.361 11.516L13.5384 13.3254L14.7956 12.5073L13.6183 10.6979L12.361 11.516ZM3.63666 8.74338L2.38666 9.99338L3.44732 11.054L4.69732 9.80404L3.63666 8.74338Z" fill="#333"/>
</svg>
