<svg width="224" height="49" viewBox="0 0 224 49" fill="none" xmlns="http://www.w3.org/2000/svg">
<path d="M224 40.407V46.4832H222.686V44.5388H221.433L220.264 46.4832H218.745L220.107 44.3201C219.753 44.158 219.476 43.919 219.275 43.6031C219.082 43.279 218.986 42.9023 218.986 42.4729C218.986 42.1731 219.038 41.8977 219.143 41.6465C219.247 41.3873 219.392 41.1685 219.577 40.9903C219.769 40.804 219.998 40.6622 220.264 40.565C220.529 40.4596 220.822 40.407 221.143 40.407H224ZM222.686 41.5736H221.312C220.999 41.5736 220.75 41.6587 220.565 41.8288C220.388 41.9909 220.3 42.2055 220.3 42.4729C220.3 42.7403 220.388 42.959 220.565 43.1291C220.75 43.2912 220.999 43.3722 221.312 43.3722H222.686V41.5736Z" fill="#333333"/>
<path d="M207.742 40.407H209.118V44.4538L211.786 40.407H213.162V46.4832H211.786V42.4364L209.106 46.4832H207.742V40.407Z" fill="#333333"/>
<path d="M196.082 46.4407V40.407H197.45V45.1857H200.006V40.407H201.362V45.1857H202.322V47.9612H200.978V46.4407H196.082Z" fill="#333333"/>
<path d="M188.685 45.6529C188.24 46.316 187.577 46.6476 186.696 46.6476C186.381 46.6476 186.09 46.6031 185.823 46.5142C185.565 46.4252 185.342 46.2999 185.156 46.1381C184.979 45.9683 184.837 45.7702 184.732 45.5438C184.635 45.3092 184.587 45.0545 184.587 44.7796C184.587 44.1731 184.817 43.7 185.278 43.3603C185.738 43.0126 186.397 42.8226 187.254 42.7902L188.685 42.7296V42.6568C188.685 42.2606 188.563 41.9492 188.321 41.7228C188.078 41.4964 187.747 41.3831 187.327 41.3831C186.664 41.3831 186.175 41.6904 185.86 42.305L184.756 41.7592C185.007 41.274 185.355 40.902 185.799 40.6432C186.244 40.3764 186.773 40.2429 187.387 40.2429C187.791 40.2429 188.155 40.2995 188.478 40.4127C188.802 40.526 189.077 40.6917 189.303 40.9101C189.529 41.1203 189.703 41.3751 189.824 41.6743C189.945 41.9735 190.006 42.3091 190.006 42.6811V46.4778H188.685V45.6529ZM186.999 45.4952C187.25 45.4952 187.476 45.4548 187.678 45.3739C187.888 45.2931 188.066 45.1799 188.212 45.0343C188.365 44.8887 188.482 44.7149 188.563 44.5127C188.644 44.3105 188.685 44.0882 188.685 43.8455V43.7364L187.339 43.7849C186.401 43.8334 185.932 44.1326 185.932 44.6825C185.932 44.9332 186.025 45.1313 186.211 45.2769C186.405 45.4225 186.668 45.4952 186.999 45.4952Z" fill="#333333"/>
<path d="M179.495 40.407V41.6708H177.56V46.4832H176.163V41.6708H174.24V40.407H179.495Z" fill="#333333"/>
<path d="M165.247 42.7281H166.041L167.749 40.407H169.255L167.085 43.2993L169.314 46.4832H167.761L166.017 43.9555H165.247V46.4832H163.895V40.407H165.247V42.7281Z" fill="#333333"/>
<path d="M155.412 46.6476C154.946 46.6476 154.517 46.5708 154.124 46.4171C153.731 46.2554 153.394 46.033 153.113 45.75C152.841 45.4669 152.624 45.1313 152.464 44.7432C152.311 44.355 152.235 43.9264 152.235 43.4574C152.235 42.9884 152.311 42.5598 152.464 42.1716C152.624 41.7754 152.841 41.4357 153.113 41.1527C153.394 40.8616 153.727 40.6392 154.112 40.4855C154.497 40.3238 154.918 40.2429 155.376 40.2429C155.809 40.2429 156.206 40.3157 156.567 40.4613C156.928 40.6068 157.236 40.813 157.493 41.0799C157.758 41.3387 157.958 41.65 158.095 42.0139C158.239 42.3778 158.311 42.7821 158.311 43.2269C158.311 43.3159 158.307 43.4089 158.299 43.5059C158.291 43.6029 158.279 43.7081 158.263 43.8213H153.595C153.667 44.3227 153.863 44.7189 154.184 45.01C154.513 45.2931 154.93 45.4346 155.436 45.4346C156.15 45.4346 156.687 45.1354 157.048 44.537L158.035 45.3133C157.738 45.75 157.369 46.0815 156.928 46.308C156.486 46.5344 155.981 46.6476 155.412 46.6476ZM155.351 41.4195C154.918 41.4195 154.549 41.5449 154.244 41.7956C153.948 42.0382 153.743 42.3697 153.631 42.7902H156.94C156.9 42.3778 156.735 42.0463 156.446 41.7956C156.158 41.5449 155.793 41.4195 155.351 41.4195Z" fill="#333333"/>
<path d="M140.575 45.1423H140.674C140.878 45.1423 141.046 45.1101 141.176 45.0457C141.315 44.9732 141.422 44.8444 141.495 44.6591C141.577 44.4739 141.634 44.2202 141.667 43.8981C141.7 43.5679 141.716 43.1491 141.716 42.6418V40.407H146.487V46.447H145.089V41.6633H143.065V42.8713C143.065 43.5236 143.029 44.0793 142.955 44.5383C142.881 44.9893 142.759 45.3598 142.587 45.6497C142.415 45.9396 142.182 46.153 141.888 46.2899C141.593 46.4188 141.226 46.4832 140.784 46.4832H140.575V45.1423Z" fill="#333333"/>
<path d="M129.736 40.407H135.156V46.4832H133.776V41.6708H131.128V46.4832H129.736V40.407Z" fill="#333333"/>
<path d="M122.074 40.407H123.66V46.4832H122.417V42.2542L120.772 45.6447H119.979L118.334 42.2542V46.4832H117.091V40.407H118.7L120.393 43.992L122.074 40.407Z" fill="#333333"/>
<path d="M108.141 46.6476C107.67 46.6476 107.24 46.5667 106.85 46.405C106.461 46.2433 106.124 46.0209 105.84 45.7378C105.556 45.4467 105.332 45.1071 105.17 44.7189C105.016 44.3308 104.939 43.9062 104.939 43.4453C104.939 42.9843 105.016 42.5598 105.17 42.1716C105.332 41.7834 105.556 41.4478 105.84 41.1648C106.124 40.8737 106.461 40.6473 106.85 40.4855C107.24 40.3238 107.67 40.2429 108.141 40.2429C108.612 40.2429 109.042 40.3238 109.432 40.4855C109.821 40.6473 110.158 40.8737 110.442 41.1648C110.726 41.4478 110.946 41.7834 111.1 42.1716C111.262 42.5598 111.343 42.9843 111.343 43.4453C111.343 43.9062 111.262 44.3308 111.1 44.7189C110.946 45.1071 110.726 45.4467 110.442 45.7378C110.158 46.0209 109.821 46.2433 109.432 46.405C109.042 46.5667 108.612 46.6476 108.141 46.6476ZM108.141 45.3739C108.401 45.3739 108.64 45.3254 108.859 45.2284C109.087 45.1313 109.278 44.9979 109.432 44.8281C109.594 44.6583 109.72 44.4561 109.809 44.2216C109.898 43.979 109.943 43.7202 109.943 43.4453C109.943 43.1622 109.898 42.9034 109.809 42.6689C109.72 42.4344 109.594 42.2323 109.432 42.0624C109.278 41.8926 109.087 41.7592 108.859 41.6621C108.64 41.5651 108.401 41.5166 108.141 41.5166C107.881 41.5166 107.638 41.5651 107.41 41.6621C107.191 41.7592 107.001 41.8926 106.838 42.0624C106.684 42.2323 106.562 42.4344 106.473 42.6689C106.384 42.9034 106.339 43.1622 106.339 43.4453C106.339 43.7202 106.384 43.979 106.473 44.2216C106.562 44.4561 106.684 44.6583 106.838 44.8281C107.001 44.9979 107.191 45.1313 107.41 45.2284C107.638 45.3254 107.881 45.3739 108.141 45.3739Z" fill="#333333"/>
<path d="M95.9861 42.7281H96.8047L98.5641 40.407H100.116L97.8799 43.2993L100.177 46.4832H98.5763L96.7803 43.9555H95.9861V46.4832H94.5933V40.407H95.9861V42.7281Z" fill="#333333"/>
<path d="M75.543 40.407H76.9606V44.4538L79.7089 40.407H81.1265V46.4832H79.7089V42.4364L76.9482 46.4832H75.543V40.407Z" fill="#333333"/>
<path d="M61.9123 40.407V46.4832H60.533V43.8947H57.8844V46.4832H56.4929V40.407H57.8844V42.643H60.533V40.407H61.9123Z" fill="#333333"/>
<path d="M45.1611 40.4093H46.5371V44.4545L49.2045 40.4093H50.5805V46.4832H49.2045V42.438L46.525 46.4832H45.1611V40.4093ZM47.8768 39.5589C47.2653 39.5589 46.7624 39.4091 46.3681 39.1094C45.9738 38.8017 45.7284 38.3765 45.6319 37.8339L46.7906 37.6152C46.8388 37.9149 46.9555 38.1416 47.1406 38.2955C47.3256 38.4494 47.5711 38.5263 47.8768 38.5263C48.4964 38.5263 48.8545 38.2226 48.951 37.6152L50.1098 37.8339C50.0132 38.3765 49.7678 38.8017 49.3735 39.1094C48.9792 39.4091 48.4803 39.5589 47.8768 39.5589Z" fill="#333333"/>
<path d="M37.8045 45.6529C37.3734 46.316 36.7307 46.6476 35.8764 46.6476C35.5708 46.6476 35.2886 46.6031 35.03 46.5142C34.7792 46.4252 34.5636 46.2999 34.3834 46.1381C34.2109 45.9683 34.0738 45.7702 33.9719 45.5438C33.8778 45.3092 33.8308 45.0545 33.8308 44.7796C33.8308 44.1731 34.0542 43.7 34.5009 43.3603C34.9477 43.0126 35.5864 42.8226 36.4172 42.7902L37.8045 42.7296V42.6568C37.8045 42.2606 37.6869 41.9492 37.4518 41.7228C37.2167 41.4964 36.8953 41.3831 36.4878 41.3831C35.8451 41.3831 35.3709 41.6904 35.0652 42.305L33.9954 41.7592C34.2384 41.274 34.5754 40.902 35.0065 40.6432C35.4375 40.3764 35.9509 40.2429 36.5465 40.2429C36.9384 40.2429 37.2911 40.2995 37.6046 40.4127C37.9181 40.526 38.1846 40.6917 38.4041 40.9101C38.6235 41.1203 38.792 41.3751 38.9096 41.6743C39.0271 41.9735 39.0859 42.3091 39.0859 42.6811V46.4778H37.8045V45.6529ZM36.1703 45.4952C36.4133 45.4952 36.6328 45.4548 36.8287 45.3739C37.0325 45.2931 37.2049 45.1799 37.346 45.0343C37.4949 44.8887 37.6085 44.7149 37.6869 44.5127C37.7653 44.3105 37.8045 44.0882 37.8045 43.8455V43.7364L36.4995 43.7849C35.5904 43.8334 35.1358 44.1326 35.1358 44.6825C35.1358 44.9332 35.2259 45.1313 35.4062 45.2769C35.5943 45.4225 35.849 45.4952 36.1703 45.4952Z" fill="#333333"/>
<path d="M25.9885 46.6476C25.3144 46.6476 24.7579 46.4939 24.3189 46.1867C23.88 45.8794 23.5469 45.4427 23.3196 44.8766L24.4483 44.4157C24.6991 45.1354 25.2047 45.4952 25.965 45.4952C26.3255 45.4952 26.6155 45.4184 26.835 45.2648C27.0545 45.1111 27.1642 44.9009 27.1642 44.634C27.1642 44.3995 27.078 44.2175 26.9055 44.0882C26.7409 43.9588 26.5097 43.8941 26.2119 43.8941H25.0126V42.7781H26.1884C26.4549 42.7781 26.6626 42.7215 26.8115 42.6083C26.9604 42.487 27.0349 42.3293 27.0349 42.1352C27.0349 41.9088 26.9369 41.7268 26.7409 41.5894C26.5528 41.4438 26.2942 41.371 25.965 41.371C25.283 41.371 24.8206 41.6904 24.5776 42.3293L23.4842 41.8562C23.7193 41.3225 24.0525 40.9222 24.4836 40.6553C24.9225 40.3804 25.4437 40.2429 26.0473 40.2429C26.7292 40.2429 27.27 40.4047 27.6698 40.7281C28.0774 41.0435 28.2811 41.464 28.2811 41.9896C28.2811 42.6366 27.9676 43.0773 27.3406 43.3118C27.6776 43.425 27.9402 43.611 28.1283 43.8698C28.3164 44.1205 28.4105 44.4278 28.4105 44.7917C28.4105 45.0666 28.3517 45.3214 28.2341 45.5559C28.1165 45.7823 27.9519 45.9764 27.7403 46.1381C27.5287 46.2999 27.2739 46.4252 26.9761 46.5142C26.6782 46.6031 26.349 46.6476 25.9885 46.6476Z" fill="#333333"/>
<path d="M12.3171 40.407H13.7348V44.4538L16.483 40.407H17.9007V46.4832H16.483V42.4364L13.7224 46.4832H12.3171V40.407Z" fill="#333333"/>
<path d="M0.000488281 45.1857H0.587496C0.685331 45.0731 0.76686 44.9283 0.832083 44.7513C0.897306 44.5743 0.9503 44.3571 0.991064 44.0996C1.03183 43.8341 1.06036 43.5204 1.07667 43.1584C1.10113 42.7963 1.11336 42.378 1.11336 41.9033V40.407H5.91948V45.1857H6.89783V47.9612H5.52815V46.4407H1.37017V47.9612H0.000488281V45.1857ZM4.53757 45.1857V41.662H2.47081V42.1809C2.47081 42.559 2.46266 42.8969 2.44635 43.1946C2.43005 43.4922 2.40559 43.7617 2.37298 44.0031C2.34037 44.2364 2.29553 44.4496 2.23846 44.6427C2.18139 44.8357 2.11616 45.0168 2.04279 45.1857H4.53757Z" fill="#333333"/>
<path d="M224 40.4924V46.5687H222.686V44.6243H221.433L220.264 46.5687H218.745L220.107 44.4055C219.753 44.2435 219.476 44.0045 219.275 43.6885C219.082 43.3645 218.986 42.9877 218.986 42.5584C218.986 42.2586 219.038 41.9831 219.143 41.732C219.247 41.4727 219.392 41.254 219.577 41.0758C219.769 40.8894 219.998 40.7476 220.264 40.6504C220.529 40.5451 220.822 40.4924 221.143 40.4924H224ZM222.686 41.6591H221.312C220.999 41.6591 220.75 41.7441 220.565 41.9143C220.388 42.0763 220.3 42.291 220.3 42.5584C220.3 42.8257 220.388 43.0445 220.565 43.2146C220.75 43.3766 220.999 43.4576 221.312 43.4576H222.686V41.6591Z" fill="#333333"/>
<path d="M207.742 40.4924H209.118V44.5392L211.786 40.4924H213.162V46.5687H211.786V42.5219L209.106 46.5687H207.742V40.4924Z" fill="#333333"/>
<path d="M196.082 46.5262V40.4924H197.45V45.2712H200.006V40.4924H201.362V45.2712H202.322V48.0467H200.978V46.5262H196.082Z" fill="#333333"/>
<path d="M188.685 45.7384C188.24 46.4015 187.577 46.7331 186.696 46.7331C186.381 46.7331 186.09 46.6886 185.823 46.5996C185.565 46.5107 185.342 46.3853 185.156 46.2236C184.979 46.0538 184.837 45.8556 184.732 45.6292C184.635 45.3947 184.587 45.14 184.587 44.865C184.587 44.2585 184.817 43.7854 185.278 43.4458C185.738 43.0981 186.397 42.908 187.254 42.8757L188.685 42.815V42.7423C188.685 42.346 188.563 42.0347 188.321 41.8082C188.078 41.5818 187.747 41.4686 187.327 41.4686C186.664 41.4686 186.175 41.7759 185.86 42.3905L184.756 41.8446C185.007 41.3594 185.355 40.9874 185.799 40.7287C186.244 40.4618 186.773 40.3284 187.387 40.3284C187.791 40.3284 188.155 40.385 188.478 40.4982C188.802 40.6114 189.077 40.7772 189.303 40.9955C189.529 41.2058 189.703 41.4605 189.824 41.7597C189.945 42.0589 190.006 42.3945 190.006 42.7665V46.5632H188.685V45.7384ZM186.999 45.5807C187.25 45.5807 187.476 45.5403 187.678 45.4594C187.888 45.3785 188.066 45.2653 188.212 45.1198C188.365 44.9742 188.482 44.8003 188.563 44.5982C188.644 44.396 188.685 44.1736 188.685 43.931V43.8218L187.339 43.8704C186.401 43.9189 185.932 44.2181 185.932 44.768C185.932 45.0187 186.025 45.2168 186.211 45.3624C186.405 45.5079 186.668 45.5807 186.999 45.5807Z" fill="#333333"/>
<path d="M179.495 40.4924V41.7563H177.56V46.5687H176.163V41.7563H174.24V40.4924H179.495Z" fill="#333333"/>
<path d="M165.246 42.8136H166.041L167.748 40.4924H169.254L167.084 43.3847L169.314 46.5687H167.76L166.017 44.041H165.246V46.5687H163.894V40.4924H165.246V42.8136Z" fill="#333333"/>
<path d="M155.412 46.7331C154.946 46.7331 154.517 46.6562 154.124 46.5026C153.731 46.3409 153.394 46.1185 153.113 45.8354C152.841 45.5524 152.624 45.2168 152.464 44.8286C152.311 44.4405 152.235 44.0119 152.235 43.5428C152.235 43.0738 152.311 42.6452 152.464 42.2571C152.624 41.8608 152.841 41.5212 153.113 41.2381C153.394 40.947 153.727 40.7246 154.112 40.571C154.497 40.4092 154.918 40.3284 155.376 40.3284C155.809 40.3284 156.206 40.4011 156.567 40.5467C156.928 40.6923 157.236 40.8985 157.493 41.1653C157.758 41.4241 157.958 41.7355 158.095 42.0994C158.239 42.4633 158.311 42.8676 158.311 43.3124C158.311 43.4013 158.307 43.4943 158.299 43.5914C158.291 43.6884 158.279 43.7935 158.263 43.9067H153.595C153.667 44.4081 153.863 44.8044 154.184 45.0955C154.513 45.3785 154.93 45.52 155.436 45.52C156.15 45.52 156.687 45.2208 157.048 44.6224L158.035 45.3987C157.738 45.8354 157.369 46.167 156.928 46.3934C156.486 46.6198 155.981 46.7331 155.412 46.7331ZM155.351 41.505C154.918 41.505 154.549 41.6303 154.244 41.881C153.948 42.1236 153.743 42.4552 153.631 42.8757H156.94C156.9 42.4633 156.735 42.1317 156.446 41.881C156.158 41.6303 155.793 41.505 155.351 41.505Z" fill="#333333"/>
<path d="M140.575 45.2278H140.674C140.878 45.2278 141.046 45.1956 141.176 45.1312C141.315 45.0587 141.422 44.9298 141.495 44.7446C141.577 44.5594 141.634 44.3057 141.667 43.9836C141.7 43.6534 141.716 43.2346 141.716 42.7272V40.4924H146.487V46.5324H145.089V41.7488H143.065V42.9568C143.065 43.6091 143.029 44.1648 142.955 44.6238C142.881 45.0748 142.759 45.4452 142.587 45.7352C142.415 46.0251 142.182 46.2385 141.888 46.3754C141.593 46.5042 141.226 46.5687 140.784 46.5687H140.575V45.2278Z" fill="#333333"/>
<path d="M129.736 40.4924H135.155V46.5687H133.776V41.7563H131.128V46.5687H129.736V40.4924Z" fill="#333333"/>
<path d="M122.073 40.4924H123.659V46.5687H122.416V42.3396L120.771 45.7302H119.978L118.333 42.3396V46.5687H117.09V40.4924H118.7L120.393 44.0774L122.073 40.4924Z" fill="#333333"/>
<path d="M108.141 46.7331C107.67 46.7331 107.24 46.6522 106.85 46.4905C106.46 46.3287 106.123 46.1063 105.839 45.8233C105.555 45.5322 105.332 45.1925 105.17 44.8044C105.015 44.4162 104.938 43.9917 104.938 43.5307C104.938 43.0698 105.015 42.6452 105.17 42.2571C105.332 41.8689 105.555 41.5333 105.839 41.2503C106.123 40.9591 106.46 40.7327 106.85 40.571C107.24 40.4092 107.67 40.3284 108.141 40.3284C108.611 40.3284 109.042 40.4092 109.431 40.571C109.821 40.7327 110.158 40.9591 110.442 41.2503C110.726 41.5333 110.945 41.8689 111.099 42.2571C111.262 42.6452 111.343 43.0698 111.343 43.5307C111.343 43.9917 111.262 44.4162 111.099 44.8044C110.945 45.1925 110.726 45.5322 110.442 45.8233C110.158 46.1063 109.821 46.3287 109.431 46.4905C109.042 46.6522 108.611 46.7331 108.141 46.7331ZM108.141 45.4594C108.4 45.4594 108.64 45.4109 108.859 45.3138C109.086 45.2168 109.277 45.0834 109.431 44.9135C109.594 44.7437 109.719 44.5416 109.809 44.307C109.898 44.0644 109.943 43.8057 109.943 43.5307C109.943 43.2477 109.898 42.9889 109.809 42.7544C109.719 42.5199 109.594 42.3177 109.431 42.1479C109.277 41.9781 109.086 41.8446 108.859 41.7476C108.64 41.6505 108.4 41.602 108.141 41.602C107.881 41.602 107.637 41.6505 107.41 41.7476C107.191 41.8446 107 41.9781 106.838 42.1479C106.683 42.3177 106.562 42.5199 106.472 42.7544C106.383 42.9889 106.339 43.2477 106.339 43.5307C106.339 43.8057 106.383 44.0644 106.472 44.307C106.562 44.5416 106.683 44.7437 106.838 44.9135C107 45.0834 107.191 45.2168 107.41 45.3138C107.637 45.4109 107.881 45.4594 108.141 45.4594Z" fill="#333333"/>
<path d="M95.9859 42.8136H96.8045L98.5638 40.4924H100.116L97.8796 43.3847L100.177 46.5687H98.5761L96.78 44.041H95.9859V46.5687H94.593V40.4924H95.9859V42.8136Z" fill="#333333"/>
<path d="M75.5427 40.4924H76.9604V44.5392L79.7086 40.4924H81.1263V46.5687H79.7086V42.5219L76.9479 46.5687H75.5427V40.4924Z" fill="#333333"/>
<path d="M61.9118 40.4924V46.5687H60.5325V43.9802H57.8839V46.5687H56.4924V40.4924H57.8839V42.7285H60.5325V40.4924H61.9118Z" fill="#333333"/>
<path d="M45.1606 40.4948H46.5366V44.5401L49.204 40.4948H50.58V46.5688H49.204V42.5236L46.5245 46.5688H45.1606V40.4948ZM47.8764 39.6445C47.2648 39.6445 46.7619 39.4947 46.3676 39.195C45.9733 38.8873 45.7279 38.4621 45.6314 37.9195L46.7901 37.7008C46.8384 38.0005 46.955 38.2272 47.1401 38.3811C47.3252 38.535 47.5706 38.6119 47.8764 38.6119C48.4959 38.6119 48.854 38.3082 48.9506 37.7008L50.1093 37.9195C50.0127 38.4621 49.7673 38.8873 49.373 39.195C48.9787 39.4947 48.4798 39.6445 47.8764 39.6445Z" fill="#333333"/>
<path d="M37.8042 45.7384C37.3732 46.4015 36.7305 46.7331 35.8762 46.7331C35.5705 46.7331 35.2884 46.6886 35.0297 46.5996C34.7789 46.5107 34.5634 46.3853 34.3831 46.2236C34.2107 46.0538 34.0735 45.8556 33.9716 45.6292C33.8776 45.3947 33.8306 45.14 33.8306 44.865C33.8306 44.2585 34.0539 43.7854 34.5007 43.4458C34.9474 43.0981 35.5862 42.908 36.417 42.8757L37.8042 42.815V42.7423C37.8042 42.346 37.6867 42.0347 37.4516 41.8082C37.2164 41.5818 36.8951 41.4686 36.4875 41.4686C35.8448 41.4686 35.3707 41.7759 35.065 42.3905L33.9952 41.8446C34.2381 41.3594 34.5751 40.9874 35.0062 40.7287C35.4373 40.4618 35.9506 40.3284 36.5463 40.3284C36.9382 40.3284 37.2909 40.385 37.6044 40.4982C37.9179 40.6114 38.1844 40.7772 38.4038 40.9955C38.6233 41.2058 38.7918 41.4605 38.9093 41.7597C39.0269 42.0589 39.0857 42.3945 39.0857 42.7665V46.5632H37.8042V45.7384ZM36.1701 45.5807C36.4131 45.5807 36.6325 45.5403 36.8285 45.4594C37.0322 45.3785 37.2047 45.2653 37.3457 45.1198C37.4947 44.9742 37.6083 44.8003 37.6867 44.5982C37.7651 44.396 37.8042 44.1736 37.8042 43.931V43.8218L36.4993 43.8704C35.5901 43.9189 35.1355 44.2181 35.1355 44.768C35.1355 45.0187 35.2257 45.2168 35.4059 45.3624C35.594 45.5079 35.8488 45.5807 36.1701 45.5807Z" fill="#333333"/>
<path d="M25.988 46.7331C25.3139 46.7331 24.7574 46.5794 24.3185 46.2721C23.8795 45.9648 23.5464 45.5281 23.3191 44.9621L24.4478 44.5011C24.6986 45.2208 25.2042 45.5807 25.9645 45.5807C26.325 45.5807 26.6151 45.5039 26.8345 45.3502C27.054 45.1966 27.1637 44.9863 27.1637 44.7195C27.1637 44.4849 27.0775 44.303 26.9051 44.1736C26.7405 44.0442 26.5092 43.9795 26.2114 43.9795H25.0121V42.8636H26.1879C26.4544 42.8636 26.6621 42.807 26.811 42.6937C26.9599 42.5724 27.0344 42.4147 27.0344 42.2207C27.0344 41.9942 26.9364 41.8123 26.7405 41.6748C26.5523 41.5292 26.2937 41.4565 25.9645 41.4565C25.2826 41.4565 24.8201 41.7759 24.5771 42.4147L23.4837 41.9417C23.7188 41.4079 24.052 41.0077 24.4831 40.7408C24.922 40.4658 25.4432 40.3284 26.0468 40.3284C26.7287 40.3284 27.2695 40.4901 27.6693 40.8136C28.0769 41.129 28.2807 41.5495 28.2807 42.0751C28.2807 42.722 27.9671 43.1628 27.3401 43.3973C27.6771 43.5105 27.9397 43.6965 28.1278 43.9553C28.3159 44.206 28.41 44.5133 28.41 44.8772C28.41 45.1521 28.3512 45.4068 28.2336 45.6413C28.1161 45.8678 27.9515 46.0619 27.7398 46.2236C27.5282 46.3853 27.2735 46.5107 26.9756 46.5996C26.6778 46.6886 26.3486 46.7331 25.988 46.7331Z" fill="#333333"/>
<path d="M12.3167 40.4924H13.7343V44.5392L16.4826 40.4924H17.9002V46.5687H16.4826V42.5219L13.7219 46.5687H12.3167V40.4924Z" fill="#333333"/>
<path d="M0 45.2712H0.587009C0.684844 45.1585 0.766373 45.0137 0.831596 44.8367C0.89682 44.6597 0.949813 44.4425 0.990578 44.1851C1.03134 43.9196 1.05988 43.6058 1.07618 43.2438C1.10064 42.8818 1.11287 42.4635 1.11287 41.9888V40.4924H5.91901V45.2712H6.89736V48.0467H5.52767V46.5262H1.36969V48.0467H0V45.2712ZM4.53709 45.2712V41.7475H2.47033V42.2664C2.47033 42.6445 2.46218 42.9824 2.44587 43.28C2.42957 43.5777 2.40511 43.8472 2.3725 44.0885C2.33988 44.3218 2.29504 44.535 2.23797 44.7281C2.1809 44.9212 2.11568 45.1022 2.0423 45.2712H4.53709Z" fill="#333333"/>
<path d="M163.797 7.15732H166.97V10.493C167.753 9.2634 168.758 8.30847 169.986 7.62825C171.239 6.94802 172.649 6.60791 174.216 6.60791C175.573 6.60791 176.84 6.86953 178.015 7.39278C179.19 7.91603 180.208 8.6355 181.07 9.55119C181.931 10.4669 182.597 11.5657 183.067 12.8477C183.563 14.1035 183.811 15.477 183.811 16.9683C183.811 18.4595 183.563 19.8461 183.067 21.1281C182.597 22.3839 181.931 23.4696 181.07 24.3853C180.208 25.301 179.19 26.0205 178.015 26.5437C176.84 27.067 175.573 27.3286 174.216 27.3286C172.649 27.3286 171.239 26.9885 169.986 26.3083C168.758 25.628 167.753 24.6731 166.97 23.4435V34.6279H163.797V7.15732ZM173.785 24.3461C174.803 24.3461 175.73 24.1629 176.566 23.7967C177.401 23.4304 178.119 22.9202 178.72 22.2662C179.32 21.5859 179.777 20.8011 180.091 19.9115C180.43 18.9958 180.6 18.0147 180.6 16.9683C180.6 15.8956 180.43 14.9145 180.091 14.025C179.777 13.1354 179.32 12.3637 178.72 11.7096C178.119 11.0294 177.401 10.5061 176.566 10.1398C175.73 9.77357 174.803 9.59043 173.785 9.59043C172.766 9.59043 171.839 9.77357 171.004 10.1398C170.168 10.5061 169.45 11.0294 168.85 11.7096C168.249 12.3637 167.779 13.1354 167.44 14.025C167.126 14.9145 166.97 15.8956 166.97 16.9683C166.97 18.0147 167.126 18.9958 167.44 19.9115C167.779 20.8011 168.249 21.5859 168.85 22.2662C169.45 22.9202 170.168 23.4304 171.004 23.7967C171.839 24.1629 172.766 24.3461 173.785 24.3461Z" fill="#333333"/>
<path d="M150.278 27.2627C148.759 27.2627 147.37 27.0149 146.113 26.5194C144.881 25.9978 143.82 25.2806 142.93 24.3679C142.039 23.4551 141.345 22.3728 140.847 21.121C140.349 19.8692 140.1 18.5 140.1 17.0135C140.1 15.5009 140.349 14.1187 140.847 12.8669C141.345 11.589 142.039 10.4937 142.93 9.58094C143.847 8.64209 144.921 7.91187 146.152 7.39029C147.383 6.8687 148.719 6.60791 150.16 6.60791C151.549 6.60791 152.806 6.84262 153.933 7.31205C155.086 7.75539 156.068 8.39434 156.88 9.22887C157.692 10.0634 158.321 11.0675 158.767 12.241C159.238 13.3885 159.474 14.6664 159.474 16.0747C159.474 16.6223 159.435 17.1961 159.356 17.7959H143.362C143.519 19.7518 144.226 21.3296 145.484 22.5293C146.741 23.7028 148.353 24.2896 150.318 24.2896C152.806 24.2896 154.745 23.2204 156.134 21.0819L158.649 22.9596C156.658 25.8283 153.867 27.2627 150.278 27.2627ZM150.082 9.54182C148.353 9.54182 146.912 10.0504 145.759 11.0675C144.632 12.0585 143.886 13.3755 143.519 15.0185H156.212C156.186 14.2361 156.003 13.5059 155.662 12.8278C155.348 12.1497 154.915 11.576 154.365 11.1066C153.841 10.6111 153.212 10.2329 152.479 9.97213C151.745 9.68526 150.946 9.54182 150.082 9.54182Z" fill="#333333"/>
<path d="M124.035 23.9303H128.623C129.867 23.9303 130.839 23.5917 131.539 22.9145C132.239 22.2373 132.589 21.3518 132.589 20.2579C132.589 19.164 132.239 18.2915 131.539 17.6404C130.839 16.9892 129.867 16.6637 128.623 16.6637H124.035V23.9303ZM120.886 26.7822V7.24829H124.035V13.8117H129.012C130.023 13.8117 130.943 13.968 131.772 14.2805C132.602 14.5931 133.315 15.0358 133.911 15.6088C134.507 16.1818 134.96 16.872 135.271 17.6794C135.608 18.4608 135.777 19.3333 135.777 20.297C135.777 21.2346 135.608 22.1071 135.271 22.9145C134.96 23.6959 134.507 24.3731 133.911 24.9461C133.34 25.519 132.641 25.9748 131.811 26.3134C130.982 26.626 130.062 26.7822 129.051 26.7822H120.886Z" fill="#333333"/>
<path d="M96.5488 7.15732H99.7213V10.493C100.505 9.2634 101.51 8.30847 102.737 7.62825C103.991 6.94802 105.401 6.60791 106.967 6.60791C108.325 6.60791 109.591 6.86953 110.766 7.39278C111.941 7.91603 112.96 8.6355 113.821 9.55119C114.683 10.4669 115.349 11.5657 115.819 12.8477C116.315 14.1035 116.563 15.477 116.563 16.9683C116.563 18.4595 116.315 19.8461 115.819 21.1281C115.349 22.3839 114.683 23.4696 113.821 24.3853C112.96 25.301 111.941 26.0205 110.766 26.5437C109.591 27.067 108.325 27.3286 106.967 27.3286C105.401 27.3286 103.991 26.9885 102.737 26.3083C101.51 25.628 100.505 24.6731 99.7213 23.4435V34.6279H96.5488V7.15732ZM106.536 24.3461C107.555 24.3461 108.482 24.1629 109.317 23.7967C110.153 23.4304 110.871 22.9202 111.471 22.2662C112.072 21.5859 112.529 20.8011 112.842 19.9115C113.182 18.9958 113.351 18.0147 113.351 16.9683C113.351 15.8956 113.182 14.9145 112.842 14.025C112.529 13.1354 112.072 12.3637 111.471 11.7096C110.871 11.0294 110.153 10.5061 109.317 10.1398C108.482 9.77357 107.555 9.59043 106.536 9.59043C105.518 9.59043 104.591 9.77357 103.756 10.1398C102.92 10.5061 102.202 11.0294 101.601 11.7096C101.001 12.3637 100.531 13.1354 100.191 14.025C99.878 14.9145 99.7213 15.8956 99.7213 16.9683C99.7213 18.0147 99.878 18.9958 100.191 19.9115C100.531 20.8011 101.001 21.5859 101.601 22.2662C102.202 22.9202 102.92 23.4304 103.756 23.7967C104.591 24.1629 105.518 24.3461 106.536 24.3461Z" fill="#333333"/>
<path d="M83.1062 27.2627C81.5993 27.2627 80.2222 27.0149 78.9751 26.5194C77.7539 25.9978 76.7017 25.2806 75.8183 24.3679C74.9349 23.4551 74.2464 22.3728 73.7527 21.121C73.259 19.8692 73.0122 18.5 73.0122 17.0135C73.0122 15.5009 73.259 14.1187 73.7527 12.8669C74.2464 11.589 74.9349 10.4937 75.8183 9.58094C76.7276 8.64209 77.7929 7.91187 79.0141 7.39029C80.2352 6.8687 81.5603 6.60791 82.9893 6.60791C84.3664 6.60791 85.6135 6.84262 86.7307 7.31205C87.8739 7.75539 88.8483 8.39434 89.6537 9.22887C90.4591 10.0634 91.0827 11.0675 91.5244 12.241C91.9921 13.3885 92.2259 14.6664 92.2259 16.0747C92.2259 16.6223 92.187 17.1961 92.109 17.7959H76.247C76.4029 19.7518 77.1044 21.3296 78.3515 22.5293C79.5987 23.7028 81.1966 24.2896 83.1452 24.2896C85.6135 24.2896 87.5362 23.2204 88.9132 21.0819L91.4075 22.9596C89.4329 25.8283 86.6658 27.2627 83.1062 27.2627ZM82.9114 9.54182C81.1965 9.54182 79.7675 10.0504 78.6243 11.0675C77.5071 12.0585 76.7666 13.3755 76.4029 15.0185H88.9912C88.9652 14.2361 88.7833 13.5059 88.4455 12.8278C88.1338 12.1497 87.7051 11.576 87.1594 11.1066C86.6398 10.6111 86.0162 10.2329 85.2887 9.97213C84.5612 9.68526 83.7688 9.54182 82.9114 9.54182Z" fill="#333333"/>
<path d="M68.689 7.24829V10.1784H62.0222V26.7822H58.8642V10.1784H52.1973V7.24829H68.689Z" fill="#333333"/>
<path d="M47.8741 7.24829V26.7822H44.7245V17.8748H34.6922V26.7822H31.5425V7.24829H34.6922V14.9447H44.7245V7.24829H47.8741Z" fill="#333333"/>
<path d="M10.1868 2.75505C10.8091 2.22461 10.9701 1.39289 10.5463 0.897356C10.1225 0.401823 9.27451 0.430124 8.65219 0.960568C8.02988 1.49101 7.86893 2.32273 8.2927 2.81826C8.71648 3.3138 9.5645 3.2855 10.1868 2.75505Z" fill="#642A38"/>
<path d="M23.4393 19.2692C23.4393 19.2692 23.6791 26.3773 26.6072 25.796C26.6072 25.796 16.0921 30.422 17.3935 19.0956C17.3935 19.0956 17.6933 15.7712 15.1315 15.2111C15.1315 15.2111 13.2896 14.8539 10.7283 19.2692C10.7283 19.2692 7.09762 25.5782 4.62731 26.9211C4.62731 26.9211 -0.086191 29.5563 0.870616 21.2769C0.870616 21.2769 1.44591 15.5762 7.13361 4.33143C7.13361 4.33143 7.65164 3.27108 8.68133 3.67957C8.84883 3.74602 8.94842 3.91329 8.9649 4.09237C8.97857 4.24109 8.96241 4.39105 8.91734 4.53349L8.80061 4.90242C8.80061 4.90242 4.48385 13.5296 5.12431 16.9721C5.12431 16.9721 5.44454 19.694 7.28586 19.2692C7.28586 19.2692 10.328 18.0128 13.2101 13.4499C13.2101 13.4499 17.4594 7.03712 20.8914 7.00105C20.8914 7.00105 23.8095 6.68354 23.9455 12.0183C23.9455 12.0183 23.2203 18.2188 23.4393 19.2692Z" fill="#642A38"/>
<path d="M213.719 26.2065V27.2627H198.415V26.2065H213.719ZM222.948 16.9353C222.948 11.815 218.816 7.66412 213.719 7.66412H198.415C193.318 7.66412 189.186 11.815 189.186 16.9353C189.186 22.0556 193.318 26.2065 198.415 26.2065V27.2627L198.282 27.2618C192.665 27.1903 188.134 22.5944 188.134 16.9353C188.134 11.2316 192.737 6.60791 198.415 6.60791H213.719C219.397 6.60791 224 11.2316 224 16.9353C224 22.5944 219.469 27.1903 213.852 27.2618L213.719 27.2627V26.2065C218.816 26.2065 222.948 22.0556 222.948 16.9353Z" fill="#642A38"/>
<path d="M212.051 6.60791H213.373V12.5217C214.042 12.544 214.644 12.6723 215.179 12.9064C215.726 13.1294 216.189 13.4416 216.568 13.843C216.947 14.2332 217.237 14.6903 217.438 15.2144C217.649 15.7384 217.755 16.307 217.755 16.9202C217.755 17.5335 217.649 18.1021 217.438 18.6261C217.237 19.1501 216.947 19.6128 216.568 20.0142C216.189 20.4045 215.726 20.7166 215.179 20.9508C214.644 21.1738 214.042 21.2964 213.373 21.3187V27.2627H212.051V21.3187C211.382 21.2964 210.774 21.1738 210.228 20.9508C209.692 20.7166 209.235 20.4045 208.856 20.0142C208.477 19.6128 208.181 19.1501 207.969 18.6261C207.769 18.1021 207.668 17.5335 207.668 16.9202C207.668 16.307 207.769 15.7384 207.969 15.2144C208.181 14.6903 208.477 14.2332 208.856 13.843C209.235 13.4416 209.692 13.1294 210.228 12.9064C210.774 12.6723 211.382 12.544 212.051 12.5217V6.60791ZM213.373 20.0644C213.819 20.0532 214.226 19.9696 214.594 19.8135C214.973 19.6574 215.296 19.44 215.564 19.1613C215.832 18.8825 216.038 18.5536 216.183 18.1746C216.339 17.7955 216.417 17.3774 216.417 16.9202C216.417 16.4631 216.339 16.045 216.183 15.6659C216.038 15.2868 215.832 14.9579 215.564 14.6792C215.296 14.4004 214.973 14.183 214.594 14.0269C214.226 13.8708 213.819 13.7872 213.373 13.7761V20.0644ZM212.051 13.7761C211.605 13.7872 211.192 13.8708 210.813 14.0269C210.445 14.183 210.127 14.4004 209.86 14.6792C209.592 14.9579 209.38 15.2868 209.224 15.6659C209.079 16.045 209.006 16.4631 209.006 16.9202C209.006 17.3774 209.079 17.7955 209.224 18.1746C209.38 18.5536 209.592 18.8825 209.86 19.1613C210.127 19.44 210.445 19.6574 210.813 19.8135C211.192 19.9696 211.605 20.0532 212.051 20.0644V13.7761Z" fill="#642A38"/>
<path d="M198.062 12.7655H199.407V14.1827C199.739 13.6603 200.165 13.2546 200.686 12.9656C201.217 12.6766 201.815 12.5321 202.479 12.5321C203.055 12.5321 203.592 12.6433 204.09 12.8656C204.588 13.0879 205.02 13.3935 205.385 13.7825C205.75 14.1716 206.033 14.6384 206.232 15.183C206.442 15.7166 206.548 16.3001 206.548 16.9337C206.548 17.5672 206.442 18.1563 206.232 18.7009C206.033 19.2345 205.75 19.6957 205.385 20.0848C205.02 20.4738 204.588 20.7795 204.09 21.0018C203.592 21.2241 203.055 21.3352 202.479 21.3352C201.815 21.3352 201.217 21.1907 200.686 20.9017C200.165 20.6127 199.739 20.207 199.407 19.6846L199.407 27.2626H198.062L198.062 12.7655ZM202.296 20.0681C202.728 20.0681 203.121 19.9903 203.475 19.8347C203.83 19.6791 204.134 19.4623 204.389 19.1844C204.643 18.8955 204.837 18.562 204.97 18.1841C205.114 17.7951 205.186 17.3783 205.186 16.9337C205.186 16.4779 205.114 16.0611 204.97 15.6832C204.837 15.3053 204.643 14.9774 204.389 14.6995C204.134 14.4105 203.83 14.1882 203.475 14.0326C203.121 13.877 202.728 13.7992 202.296 13.7992C201.865 13.7992 201.472 13.877 201.117 14.0326C200.763 14.1882 200.459 14.4105 200.204 14.6995C199.949 14.9774 199.75 15.3053 199.606 15.6832C199.473 16.0611 199.407 16.4779 199.407 16.9337C199.407 17.3783 199.473 17.7951 199.606 18.1841C199.75 18.562 199.949 18.8955 200.204 19.1844C200.459 19.4623 200.763 19.6791 201.117 19.8347C201.472 19.9903 201.865 20.0681 202.296 20.0681Z" fill="#642A38"/>
<path d="M192.778 18.1361C192.414 18.1361 192.106 18.0245 191.854 17.8014C191.616 17.5652 191.497 17.2765 191.497 16.9352C191.497 16.594 191.616 16.3118 191.854 16.0887C192.106 15.8525 192.414 15.7344 192.778 15.7344C193.142 15.7344 193.443 15.8525 193.681 16.0887C193.933 16.3118 194.059 16.594 194.059 16.9352C194.059 17.2765 193.933 17.5652 193.681 17.8014C193.443 18.0245 193.142 18.1361 192.778 18.1361Z" fill="#642A38"/>
</svg>
